<?xml version="1.0" encoding="utf-8"?>
<!-- Generator: Adobe Illustrator 17.1.0, SVG Export Plug-In . SVG Version: 6.00 Build 0)  -->
<!DOCTYPE svg PUBLIC "-//W3C//DTD SVG 1.1//EN" "http://www.w3.org/Graphics/SVG/1.1/DTD/svg11.dtd">
<svg version="1.1" id="Layer_1" xmlns="http://www.w3.org/2000/svg" xmlns:xlink="http://www.w3.org/1999/xlink" x="0px" y="0px"
	 viewBox="54.6 32 280.1 224.8" enable-background="new 54.6 32 280.1 224.8" xml:space="preserve">
<path d="M308,151.6c-6.8,0.1-13.3-2.7-19.9-3C287.9,153.2,307.7,157.1,308,151.6z"/>
<path d="M307,129c-6.5-44.3-39-82.4-85.2-93.7c-54.6-13.4-109.6,15.3-131.1,65.2l22.2,0c19.7-36.3,62-56,104.1-45.7
	c37,9.1,63.3,39,69.6,74.2l-26.4,0l37.6,37.3l37-37.3L307,129z"/>
<path d="M81.3,137.2c6.8-0.1,13.3,2.7,19.9,3C101.4,135.7,81.6,131.8,81.3,137.2z"/>
<path d="M297.8,190l-22.4,0c-20.2,35.1-61.8,54.3-103.1,44.1c-37-9-63.3-39-69.6-74.2l26.4,0l-37.6-37.3l-37,37.3l27.7,0
	c6.5,44.3,39,82.4,85.2,93.7C221.5,266.8,276,238.9,297.8,190L297.8,190z"/>
</svg>
